<?xml version="1.0" standalone="no"?>
<!DOCTYPE svg PUBLIC "-//W3C//DTD SVG 20010904//EN"
 "http://www.w3.org/TR/2001/REC-SVG-20010904/DTD/svg10.dtd">
<svg version="1.0" xmlns="http://www.w3.org/2000/svg"
 width="600.000000pt" height="600.000000pt" viewBox="0 0 600.000000 600.000000"
 preserveAspectRatio="xMidYMid meet">
<metadata>
Created by potrace 1.11, written by Peter Selinger 2001-2013
</metadata>
<g transform="translate(0.000000,600.000000) scale(0.100000,-0.100000)"
fill="#000000" stroke="none">
<path d="M3274 4286 c-18 -38 -59 -111 -65 -116 -11 -10 -74 -125 -71 -132 1
-5 -2 -8 -6 -8 -5 0 -17 -18 -27 -40 -10 -22 -21 -40 -25 -40 -6 0 -20 -36
-19 -48 0 -2 -9 -12 -20 -21 -11 -10 -18 -21 -15 -24 4 -3 0 -13 -7 -21 -24
-27 -34 -41 -37 -56 -2 -8 -8 -17 -13 -18 -5 -2 -7 -7 -4 -12 3 -4 -2 -13 -10
-20 -8 -7 -15 -19 -15 -26 0 -8 -5 -14 -11 -14 -5 0 -7 -4 -4 -10 3 -5 3 -10
-2 -10 -4 0 -17 -18 -27 -40 -11 -22 -24 -40 -29 -40 -6 0 -7 -3 -4 -6 4 -4
-2 -19 -13 -34 -11 -16 -20 -33 -20 -39 0 -6 -4 -11 -8 -11 -4 0 -14 -16 -21
-35 -7 -19 -17 -35 -22 -35 -6 0 -7 -4 -4 -10 3 -5 2 -10 -4 -10 -5 0 -13 -10
-17 -22 -3 -12 -21 -45 -40 -74 -18 -28 -30 -54 -27 -58 4 -3 1 -6 -5 -6 -6 0
-19 -17 -29 -37 -9 -21 -21 -41 -26 -44 -5 -4 -6 -12 -2 -19 5 -8 4 -11 -2 -7
-6 4 -16 -5 -22 -21 -14 -33 -32 -64 -50 -86 -7 -9 -10 -16 -7 -16 4 0 -2 -10
-14 -22 -11 -12 -20 -26 -20 -31 0 -5 -6 -7 -14 -4 -7 3 -19 0 -25 -6 -8 -8
-11 -8 -11 2 0 11 -3 11 -15 1 -10 -8 -15 -9 -15 -1 0 7 -8 8 -25 1 -17 -7
-25 -6 -25 1 0 8 -4 8 -13 0 -10 -8 -17 -7 -25 1 -9 9 -12 9 -12 -1 0 -11 -3
-11 -15 -1 -12 10 -15 10 -15 0 0 -10 -3 -10 -15 0 -12 10 -15 10 -15 0 0 -10
-3 -10 -15 0 -12 10 -15 10 -15 0 0 -10 -3 -10 -15 0 -12 10 -15 10 -15 0 0
-10 -3 -10 -15 0 -12 10 -15 10 -15 0 0 -10 -3 -10 -14 -1 -9 8 -16 8 -20 2
-4 -6 -13 -8 -20 -5 -17 6 -67 -45 -64 -65 3 -11 39 -14 199 -13 185 0 196 -1
192 -18 -3 -10 -12 -27 -21 -37 -10 -10 -26 -36 -38 -58 -22 -41 -124 -218
-129 -223 -1 -2 -2 9 -2 23 0 14 4 25 9 25 5 0 6 6 1 12 -10 17 -12 149 -2
142 4 -2 4 8 0 23 -4 16 -6 34 -3 42 3 8 0 11 -6 7 -6 -3 -12 -2 -14 4 -2 7
-13 6 -30 -2 -37 -18 -66 -74 -64 -125 1 -24 -3 -43 -8 -43 -6 0 -5 -5 1 -11
8 -8 8 -20 2 -36 -5 -13 -6 -22 -1 -20 4 3 6 -48 6 -114 -1 -108 -4 -123 -29
-171 -15 -29 -33 -56 -39 -60 -6 -4 -8 -8 -3 -8 4 0 -5 -18 -19 -40 -15 -22
-24 -43 -20 -47 3 -4 90 -6 191 -6 105 0 188 -4 191 -9 3 -5 0 -17 -8 -26 -7
-9 -22 -33 -32 -52 -11 -19 -23 -37 -26 -40 -4 -3 -10 -14 -14 -26 l-6 -21
1250 0 c687 0 1250 2 1250 5 0 8 -35 67 -43 73 -5 3 -9 12 -11 20 -1 8 -14 33
-29 56 -15 24 -27 47 -27 53 0 5 -4 10 -9 10 -5 0 -16 17 -25 38 -9 20 -35 66
-57 102 -22 36 -42 73 -45 83 -4 9 -10 17 -15 17 -5 0 -9 9 -9 19 0 11 -4 21
-9 23 -7 3 -26 35 -85 143 -6 11 -13 22 -16 25 -3 3 -14 22 -25 43 -11 20 -24
37 -28 37 -5 0 -7 7 -3 15 3 8 2 15 -3 15 -5 0 -14 14 -21 30 -7 17 -17 30
-22 30 -5 0 -6 5 -3 10 3 6 1 10 -6 10 -7 0 -9 3 -6 7 4 3 -5 21 -19 40 -14
18 -21 33 -17 33 4 0 3 4 -3 8 -6 4 -22 27 -35 51 -13 24 -28 51 -34 60 -43
69 -121 208 -137 244 -7 15 -15 27 -19 27 -4 0 -13 15 -20 33 -7 17 -20 40
-29 50 -8 10 -14 21 -14 25 1 4 -7 18 -17 31 -11 13 -19 30 -19 37 0 7 -6 17
-12 21 -7 4 -21 24 -30 43 -25 50 -52 94 -61 98 -4 2 -5 8 -1 13 3 5 0 9 -6 9
-6 0 -9 4 -6 9 4 5 3 11 -1 13 -5 1 -19 23 -32 48 -14 25 -27 47 -30 50 -6 5
-32 51 -59 105 -9 17 -18 32 -21 35 -6 5 -17 24 -45 75 -6 11 -18 29 -26 39
-13 17 -13 19 0 11 8 -4 5 2 -7 14 -13 12 -23 28 -23 35 0 7 -9 21 -20 31 -11
10 -20 13 -20 7 0 -12 -60 -114 -73 -123 -5 -3 -8 -9 -7 -13 1 -4 -1 -12 -3
-19 -3 -6 -12 5 -21 26 -9 20 -21 37 -27 37 -5 0 -8 4 -4 9 3 5 1 12 -5 16 -6
4 -22 27 -35 53 -14 26 -39 70 -55 97 -17 28 -33 57 -37 65 -15 32 -28 38 -39
16z"/>
</g>
</svg>
